<svg xmlns="http://www.w3.org/2000/svg" width="32" height="32" fill="none"><path fill="#47AAFD" fill-rule="evenodd" d="M13.333 8c0-.737.597-1.333 1.333-1.333H28a1.333 1.333 0 1 1 0 2.666H14.666A1.333 1.333 0 0 1 13.333 8m0 8c0-.737.597-1.334 1.333-1.334H28a1.333 1.333 0 1 1 0 2.667H14.666A1.333 1.333 0 0 1 13.333 16m0 8c0-.737.597-1.334 1.333-1.334H28a1.333 1.333 0 1 1 0 2.667H14.666A1.333 1.333 0 0 1 13.333 24M12.167 4.292c.575.46.668 1.3.208 1.874L7.04 12.833a1.333 1.333 0 0 1-1.983.11l-2-2a1.333 1.333 0 0 1 1.885-1.886l.947.947L10.293 4.5a1.333 1.333 0 0 1 1.874-.208m0 14.667c.575.46.668 1.299.208 1.874L7.04 27.499a1.333 1.333 0 0 1-1.983.11l-2-2a1.333 1.333 0 1 1 1.885-1.885l.947.946 4.403-5.503a1.333 1.333 0 0 1 1.874-.208Z" clip-rule="evenodd"/></svg>